<svg xmlns="http://www.w3.org/2000/svg" viewBox="0 0 100 100" width="100" height="100">
  <!-- Fiducia Shield Logo with F Letter -->
  <defs>
    <linearGradient id="shieldGradient" x1="0%" y1="0%" x2="0%" y2="100%">
      <stop offset="0%" style="stop-color:#2E7D8A;stop-opacity:1" />
      <stop offset="100%" style="stop-color:#1A5B66;stop-opacity:1" />
    </linearGradient>
    <filter id="shadow" x="-20%" y="-20%" width="140%" height="140%">
      <feDropShadow dx="2" dy="4" stdDeviation="2" flood-color="#000000" flood-opacity="0.3"/>
    </filter>
  </defs>
  
  <!-- Shield Background -->
  <path d="M50 5 
           C55 5, 70 8, 85 15
           C85 25, 85 45, 85 55
           C85 75, 70 88, 50 95
           C30 88, 15 75, 15 55
           C15 45, 15 25, 15 15
           C30 8, 45 5, 50 5 Z" 
        fill="url(#shieldGradient)" 
        stroke="#0F3A42" 
        stroke-width="1" 
        filter="url(#shadow)"/>
  
  <!-- F Letter -->
  <g fill="#FFFFFF" stroke="none">
    <!-- Vertical bar of F -->
    <rect x="39" y="22" width="8" height="45" rx="1"/>
    
    <!-- Top horizontal bar of F -->
    <rect x="37" y="24" width="28" height="8" rx="1"/>
    
    <!-- Middle horizontal bar of F -->
    <rect x="37" y="42" width="25" height="7" rx="1"/>
  </g>
  
  <!-- Inner shield highlight -->
  <path d="M50 12
           C54 12, 65 14, 75 20
           C75 28, 75 42, 75 50
           C75 65, 65 75, 50 80
           C35 75, 25 65, 25 50
           C25 42, 25 28, 25 20
           C35 14, 46 12, 50 12 Z" 
        fill="none" 
        stroke="#4A9DAA" 
        stroke-width="1" 
        opacity="0.4"/>
</svg>